.
..............................Site Info...........................

 -   http://www.scenetime.com  *_*    

Scenetime .Always on time . friendly online private torrent community ..

     We care to share . Join us on  http://www.scenetime.com 

    Be the first to get new release at  http://www.scenetime.com

        Seed back for speed


...................................NFO:.................................................General
Unique ID                                : 195495069214396290219208995607926985001 (0x9312FB144474DDBABAC72A6489E6D129)
Format                                   : Matroska
Format version                           : Version 2
File size                                : 1.43 GiB
Duration                                 : 1h 38mn
Overall bit rate                         : 2 080 Kbps
Movie name                               : by Waldek for SceneTime
Encoded date                             : UTC 2012-10-17 22:37:25
Writing application                      : mkvmerge v5.8.0 ('No Sleep / Pillow') built on Sep  2 2012 15:37:04
Writing library                          : libebml v1.2.3 + libmatroska v1.3.0

Video
ID                                       : 1
Format                                   : MPEG-4 Visual
Format profile                           : Advanced Simple@L5
Format settings, BVOP                    : No
Format settings, QPel                    : No
Format settings, GMC                     : No warppoints
Format settings, Matrix                  : Custom
Codec ID                                 : V_MS/VFW/FOURCC / XVID
Codec ID/Hint                            : XviD
Duration                                 : 1h 38mn
Bit rate                                 : 1 751 Kbps
Width                                    : 704 pixels
Height                                   : 384 pixels
Display aspect ratio                     : 1.85:1
Frame rate mode                          : Constant
Frame rate                               : 25.000 fps
Color space                              : YUV
Chroma subsampling                       : 4:2:0
Bit depth                                : 8 bits
Scan type                                : Progressive
Compression mode                         : Lossy
Bits/(Pixel*Frame)                       : 0.259
Stream size                              : 1.20 GiB (84%)
Writing library                          : XviD 1.2.1 (UTC 2008-12-04)
Default                                  : Yes
Forced                                   : No

Audio #1
ID                                       : 2
Format                                   : AC-3
Format/Info                              : Audio Coding 3
Mode extension                           : CM (complete main)
Format settings, Endianness              : Big
Muxing mode                              : Header stripping
Codec ID                                 : A_AC3
Duration                                 : 1h 38mn
Bit rate mode                            : Constant
Bit rate                                 : 192 Kbps
Channel(s)                               : 2 channels
Channel positions                        : Front: L R
Sampling rate                            : 48.0 KHz
Bit depth                                : 16 bits
Compression mode                         : Lossy
Stream size                              : 135 MiB (9%)
Title                                    : don't ask...
Language                                 : Russian
Default                                  : No
Forced                                   : No

Audio #2
ID                                       : 3
Format                                   : MPEG Audio
Format version                           : Version 1
Format profile                           : Layer 3
Mode                                     : Joint stereo
Mode extension                           : MS Stereo
Muxing mode                              : Header stripping
Codec ID                                 : A_MPEG/L3
Codec ID/Hint                            : MP3
Duration                                 : 1h 38mn
Bit rate mode                            : Constant
Bit rate                                 : 96.0 Kbps
Channel(s)                               : 2 channels
Sampling rate                            : 48.0 KHz
Compression mode                         : Lossy
Stream size                              : 67.5 MiB (5%)
Title                                    : Original (Oper@)
Language                                 : Italian
Default                                  : Yes
Forced                                   : No

Text #1
ID                                       : 4
Format                                   : UTF-8
Codec ID                                 : S_TEXT/UTF8
Codec ID/Info                            : UTF-8 Plain Text
Title                                    : by Bonaducci
Language                                 : English
Default                                  : Yes
Forced                                   : No

Text #2
ID                                       : 5
Format                                   : UTF-8
Codec ID                                 : S_TEXT/UTF8
Codec ID/Info                            : UTF-8 Plain Text
Title                                    : by Bonaducci
Language                                 : Polish
Default                                  : No
Forced                                   : No